<svg width="127" height="37" viewBox="0 0 127 37" fill="none" xmlns="http://www.w3.org/2000/svg">
<g clip-path="url(#clip0_799_1555)">
<g clip-path="url(#clip1_799_1555)">
<g clip-path="url(#clip2_799_1555)">
<path d="M34.6721 1.82751C34.6721 1.18455 34.3143 0.66333 33.873 0.66333C33.4316 0.66333 33.0739 1.18455 33.0739 1.82751V35.0518C33.0739 35.6948 33.4316 36.216 33.873 36.216C34.3143 36.216 34.6721 35.6948 34.6721 35.0518V1.82751Z" fill="white"/>
<g clip-path="url(#clip3_799_1555)">
<g clip-path="url(#clip4_799_1555)">
<g clip-path="url(#clip5_799_1555)">
<g clip-path="url(#clip6_799_1555)">
<path d="M42.0892 17.3476H40.0759V2.76345H44.0669C45.0669 2.76345 45.9261 2.94686 46.6445 3.31415C47.3598 3.68143 47.9155 4.16493 48.3121 4.76556C48.7051 5.3662 48.9018 6.02237 48.9018 6.73501C48.9018 7.53445 48.6542 8.25176 48.1596 8.88646C47.6649 9.52443 46.9887 9.99579 46.131 10.3005L51.4642 17.3476H49.1154L44.0669 10.6366H42.0892V17.3476ZM42.0892 4.41554V9.08247H44.0669C44.7482 9.08247 45.3039 8.9672 45.7345 8.73712C46.1651 8.50377 46.4818 8.20649 46.6852 7.84574C46.8921 7.48171 46.9953 7.11163 46.9953 6.73501C46.9953 6.05363 46.7274 5.49687 46.192 5.06424C45.6567 4.63162 44.948 4.41554 44.0669 4.41554H42.0892ZM57.7989 17.4783C56.833 17.4783 55.9499 17.2543 55.1501 16.8062C54.3504 16.3582 53.7113 15.7562 53.2334 15.0001C52.7591 14.2408 52.5217 13.4027 52.5217 12.4847C52.5217 11.5667 52.7591 10.7299 53.2334 9.97386C53.7113 9.21781 54.3504 8.61578 55.1501 8.16775C55.9499 7.71973 56.833 7.49572 57.7989 7.49572C58.5275 7.49572 59.2138 7.62032 59.858 7.86907C60.4986 8.11782 61.0542 8.46317 61.5255 8.90513V7.62639H63.2897V17.3476H61.5255V16.0689C61.0542 16.5015 60.4986 16.8436 59.858 17.0956C59.2138 17.3509 58.5275 17.4783 57.7989 17.4783ZM58.048 15.8869C58.7191 15.8869 59.3277 15.7343 59.8732 15.4295C60.4187 15.1215 60.8544 14.7108 61.1798 14.1974C61.5016 13.6841 61.6628 13.1133 61.6628 12.4847C61.6628 11.8593 61.5016 11.2899 61.1798 10.7766C60.8544 10.2632 60.4187 9.85252 59.8732 9.5445C59.3277 9.23648 58.7191 9.08247 58.048 9.08247C57.3769 9.08247 56.7669 9.23648 56.2178 9.5445C55.6723 9.85252 55.2366 10.2632 54.9112 10.7766C54.5894 11.2899 54.4282 11.8593 54.4282 12.4847C54.4282 13.1133 54.5894 13.6841 54.9112 14.1974C55.2366 14.7108 55.6723 15.1215 56.2178 15.4295C56.7669 15.7343 57.3769 15.8869 58.048 15.8869ZM68.5873 17.3476H66.6808V7.62639H68.5873V17.3476ZM67.6315 5.87629C67.2792 5.87629 66.9792 5.76288 66.7316 5.5356C66.484 5.30833 66.3605 5.03298 66.3605 4.70956C66.3605 4.37354 66.484 4.09492 66.7316 3.87418C66.9792 3.65343 67.2792 3.54282 67.6315 3.54282C67.9975 3.54282 68.301 3.65343 68.5415 3.87418C68.782 4.09492 68.9025 4.37354 68.9025 4.70956C68.9025 5.03298 68.782 5.30833 68.5415 5.5356C68.301 5.76288 67.9975 5.87629 67.6315 5.87629ZM73.8798 17.3476H71.9733V7.62639H73.7374V9.19448C74.1274 8.62185 74.6307 8.18502 75.2474 7.88307C75.8676 7.58112 76.5352 7.43038 77.2505 7.43038C78.0065 7.43038 78.7045 7.59979 79.3451 7.93907C79.9857 8.28116 80.5058 8.77306 80.9059 9.41383C81.306 10.0579 81.5058 10.8386 81.5058 11.7566V17.3476H79.5993V11.9993C79.5993 11.2339 79.3502 10.5558 78.852 9.96452C78.3502 9.37649 77.6471 9.08247 76.7421 9.08247C75.9998 9.08247 75.3374 9.32842 74.7542 9.81985C74.1711 10.3113 73.8798 11.0225 73.8798 11.9526V17.3476ZM90.1741 17.4783C89.4456 17.4783 88.7623 17.3509 88.1253 17.0956C87.4913 16.8436 86.9321 16.5015 86.4475 16.0689V17.3476H84.6834V1.79272H86.5899V8.77445C87.0612 8.37637 87.6031 8.06368 88.2168 7.8364C88.8269 7.60912 89.4792 7.49572 90.1741 7.49572C91.1503 7.49572 92.0364 7.71973 92.8331 8.16775C93.6262 8.61578 94.2617 9.21781 94.7396 9.97386C95.214 10.7299 95.4514 11.5667 95.4514 12.4847C95.4514 13.4027 95.214 14.2408 94.7396 15.0001C94.2617 15.7562 93.6262 16.3582 92.8331 16.8062C92.0364 17.2543 91.1503 17.4783 90.1741 17.4783ZM89.925 15.8869C90.5961 15.8869 91.2062 15.7343 91.7553 15.4295C92.3008 15.1215 92.7365 14.7108 93.0619 14.1974C93.3837 13.6841 93.5449 13.1133 93.5449 12.4847C93.5449 11.8593 93.3837 11.2899 93.0619 10.7766C92.7365 10.2632 92.3008 9.85252 91.7553 9.5445C91.2062 9.23648 90.5961 9.08247 89.925 9.08247C89.2575 9.08247 88.6489 9.23648 88.0999 9.5445C87.5543 9.85252 87.1186 10.2632 86.7933 10.7766C86.4714 11.2899 86.3103 11.8593 86.3103 12.4847C86.3103 13.1133 86.4714 13.6841 86.7933 14.1974C87.1186 14.7108 87.5543 15.1215 88.0999 15.4295C88.6489 15.7343 89.2575 15.8869 89.925 15.8869ZM102.94 17.5436C101.913 17.5436 100.976 17.3163 100.129 16.8622C99.2812 16.4082 98.6086 15.7968 98.1104 15.0281C97.6086 14.2628 97.3579 13.4148 97.3579 12.4847C97.3579 11.5452 97.6086 10.694 98.1104 9.93185C98.6086 9.17254 99.2812 8.56584 100.129 8.11175C100.976 7.65766 101.913 7.43038 102.94 7.43038C103.974 7.43038 104.911 7.65766 105.752 8.11175C106.596 8.56584 107.267 9.17254 107.765 9.93185C108.267 10.694 108.517 11.5452 108.517 12.4847C108.517 13.4148 108.267 14.2628 107.765 15.0281C107.267 15.7968 106.596 16.4082 105.752 16.8622C104.911 17.3163 103.974 17.5436 102.94 17.5436ZM102.94 15.8869C103.621 15.8869 104.238 15.7343 104.791 15.4295C105.343 15.1215 105.786 14.7108 106.118 14.1974C106.447 13.6841 106.611 13.1133 106.611 12.4847C106.611 11.8593 106.447 11.2899 106.118 10.7766C105.786 10.2632 105.343 9.85252 104.791 9.5445C104.238 9.23648 103.621 9.08247 102.94 9.08247C102.255 9.08247 101.637 9.23648 101.085 9.5445C100.532 9.85252 100.092 10.2632 99.7627 10.7766C99.4307 11.2899 99.2644 11.8593 99.2644 12.4847C99.2644 13.1133 99.4307 13.6841 99.7627 14.1974C100.092 14.7108 100.532 15.1215 101.085 15.4295C101.637 15.7343 102.255 15.8869 102.94 15.8869ZM117.165 13.4927L115.03 17.833L109.682 7.62639H111.853L113.988 11.836C114.188 12.2373 114.379 12.6261 114.562 13.0027C114.745 13.3821 114.925 13.8581 115.101 14.4308C115.288 13.8675 115.479 13.3914 115.676 13.0027C115.869 12.6139 116.053 12.2247 116.23 11.836L118.365 7.16903L120.485 11.836C120.662 12.2373 120.845 12.6261 121.034 13.0027C121.221 13.3821 121.402 13.8581 121.578 14.4308C121.755 13.8581 121.938 13.3807 122.127 12.998C122.314 12.6121 122.507 12.2247 122.707 11.836L124.878 7.62639H126.911L121.563 17.833L119.407 13.4927C119.221 13.104 119.036 12.7166 118.853 12.3307C118.67 11.948 118.484 11.4859 118.294 10.9446C118.118 11.4859 117.937 11.948 117.75 12.3307C117.56 12.7166 117.365 13.104 117.165 13.4927Z" fill="white"/>
<path d="M47.1376 35.0867C45.9851 35.0867 44.9073 34.8893 43.9042 34.494C42.9041 34.0987 42.0246 33.5527 41.2656 32.8559C40.5065 32.1591 39.9147 31.3545 39.4912 30.4431C39.0677 29.5284 38.8557 28.5469 38.8557 27.4983C38.8557 26.4529 39.0708 25.4728 39.5014 24.5581C39.932 23.6466 40.5268 22.8421 41.2859 22.1453C42.0449 21.4485 42.9245 20.9025 43.9245 20.5072C44.9245 20.1119 46.0003 19.9145 47.1529 19.9145C48.2851 19.9145 49.3441 20.1072 50.3304 20.4932C51.3203 20.8759 52.1912 21.4018 52.9436 22.0706L52.364 24.3061C51.8216 23.5094 51.0945 22.8701 50.183 22.388C49.2714 21.9059 48.2612 21.6646 47.1529 21.6646C45.9902 21.6646 44.9398 21.9273 44.0008 22.4533C43.0653 22.976 42.3215 23.6774 41.7689 24.5581C41.2162 25.4387 40.9402 26.4188 40.9402 27.4983C40.9402 28.5591 41.2147 29.5316 41.7638 30.4151C42.3093 31.3018 43.0501 32.0098 43.9855 32.5385C44.921 33.0673 45.9719 33.3319 47.1376 33.3319C47.795 33.3319 48.4224 33.2605 49.0187 33.1172C49.612 32.9712 50.156 32.7626 50.6507 32.4919V28.665H46.2733V27.0129H52.5928V33.4299C51.8744 33.9806 51.0407 34.3946 50.0915 34.6713C49.1458 34.9481 48.161 35.0867 47.1376 35.0867ZM60.6256 34.9234C59.6596 34.9234 58.7765 34.6993 57.9768 34.2513C57.1771 33.8033 56.538 33.2013 56.0601 32.4452C55.5822 31.6859 55.3433 30.8477 55.3433 29.9297C55.3433 29.0117 55.5822 28.175 56.0601 27.4189C56.538 26.6629 57.1771 26.0608 57.9768 25.6128C58.7765 25.1648 59.6596 24.9408 60.6256 24.9408C61.3542 24.9408 62.039 25.0654 62.6796 25.3141C63.3202 25.5629 63.8758 25.9082 64.3471 26.3502V25.0715H66.1113V34.7927H64.3471V33.5139C63.8758 33.9466 63.3202 34.2886 62.6796 34.5407C62.039 34.7959 61.3542 34.9234 60.6256 34.9234ZM60.8696 33.3319C61.5407 33.3319 62.1508 33.1793 62.6999 32.8746C63.2454 32.5666 63.6811 32.1559 64.0065 31.6425C64.3283 31.1291 64.4895 30.5584 64.4895 29.9297C64.4895 29.3044 64.3283 28.735 64.0065 28.2216C63.6811 27.7083 63.2454 27.2976 62.6999 26.9896C62.1508 26.6816 61.5407 26.5275 60.8696 26.5275C60.1986 26.5275 59.59 26.6816 59.0445 26.9896C58.4954 27.2976 58.0597 27.7083 57.7379 28.2216C57.4125 28.735 57.2498 29.3044 57.2498 29.9297C57.2498 30.5584 57.4125 31.1291 57.7379 31.6425C58.0597 32.1559 58.4954 32.5666 59.0445 32.8746C59.59 33.1793 60.1986 33.3319 60.8696 33.3319ZM71.4089 34.7927H69.5024V25.0715H71.2665V26.8542C71.6427 26.2816 72.1425 25.8242 72.7663 25.4821C73.3932 25.1429 74.1355 24.9735 74.9931 24.9735L75.471 26.7236C75.2473 26.6582 74.9881 26.6255 74.6932 26.6255C73.7033 26.6255 72.9087 26.9149 72.3088 27.4936C71.7088 28.0723 71.4089 28.8951 71.4089 29.9624V34.7927ZM81.9837 34.9234C81.0177 34.9234 80.1346 34.6993 79.3349 34.2513C78.5352 33.8033 77.8961 33.2013 77.4182 32.4452C76.9439 31.6859 76.7065 30.8477 76.7065 29.9297C76.7065 29.0117 76.9439 28.175 77.4182 27.4189C77.8961 26.6629 78.5352 26.0608 79.3349 25.6128C80.1346 25.1648 81.0177 24.9408 81.9837 24.9408C82.6787 24.9408 83.331 25.0542 83.9411 25.2815C84.5547 25.5088 85.0967 25.8214 85.568 26.2195V19.2378H87.4745V34.7927H85.7103V33.5139C85.239 33.9466 84.6818 34.2886 84.0377 34.5407C83.3971 34.7959 82.7123 34.9234 81.9837 34.9234ZM82.2328 33.3319C82.9039 33.3319 83.5125 33.1793 84.058 32.8746C84.6035 32.5666 85.0392 32.1559 85.3646 31.6425C85.6864 31.1291 85.8476 30.5584 85.8476 29.9297C85.8476 29.3044 85.6864 28.735 85.3646 28.2216C85.0392 27.7083 84.6035 27.2976 84.058 26.9896C83.5125 26.6816 82.9039 26.5275 82.2328 26.5275C81.5617 26.5275 80.9516 26.6816 80.4026 26.9896C79.857 27.2976 79.4213 27.7083 79.096 28.2216C78.7741 28.735 78.613 29.3044 78.613 29.9297C78.613 30.5584 78.7741 31.1291 79.096 31.6425C79.4213 32.1559 79.857 32.5666 80.4026 32.8746C80.9516 33.1793 81.5617 33.3319 82.2328 33.3319ZM95.914 34.9887C94.8057 34.9887 93.8128 34.7614 92.9347 34.3073C92.0603 33.8532 91.3724 33.2339 90.8706 32.4499C90.3724 31.6691 90.1233 30.7964 90.1233 29.8317C90.1233 28.9137 90.3637 28.0802 90.8452 27.3303C91.3267 26.5803 91.9774 25.9829 92.7975 25.5382C93.6145 25.0962 94.5174 24.8754 95.5073 24.8754C96.4834 24.8754 97.3767 25.0887 98.1866 25.5148C99 25.9409 99.6472 26.5168 100.129 27.2416C100.613 27.9664 100.856 28.7877 100.856 29.7057V30.4151H93.9363C93.6277 30.4151 93.3161 30.4058 93.0008 30.3871C92.6821 30.3652 92.3704 30.3325 92.0654 30.2891C92.194 31.1511 92.6195 31.8744 93.3415 32.4592C94.067 33.0412 94.9292 33.3319 95.9293 33.3319C96.6003 33.3319 97.2242 33.1919 97.8002 32.9119C98.3762 32.6319 98.8409 32.2599 99.1932 31.7965L99.727 33.7893C99.2186 34.1659 98.6391 34.4599 97.9883 34.6713C97.334 34.8827 96.6425 34.9887 95.914 34.9887ZM92.0094 29.1037C92.6465 29.0071 93.2891 28.959 93.9363 28.959H97.4494C97.7071 28.959 97.9629 28.9669 98.2171 28.9823C98.4677 28.9977 98.724 29.0164 98.9848 29.0384C98.8185 28.2823 98.4067 27.6583 97.7493 27.1669C97.0884 26.6755 96.3411 26.4295 95.5073 26.4295C94.6465 26.4295 93.8921 26.6923 93.2449 27.2182C92.5977 27.7409 92.1859 28.3696 92.0094 29.1037ZM105.304 34.7927H103.398V25.0715H105.162V26.6395C105.552 26.0669 106.055 25.6301 106.672 25.3281C107.289 25.0262 107.957 24.8754 108.675 24.8754C109.427 24.8754 110.124 25.0449 110.765 25.3841C111.409 25.7262 111.93 26.2181 112.33 26.8589C112.731 27.5029 112.93 28.2837 112.93 29.2017V34.7927H111.024V29.4444C111.024 28.679 110.773 28.0009 110.271 27.4096C109.773 26.8216 109.07 26.5275 108.161 26.5275C107.423 26.5275 106.762 26.7735 106.179 27.2649C105.596 27.7563 105.304 28.4676 105.304 29.3977V34.7927ZM118.843 34.9887C118.301 34.9887 117.721 34.894 117.104 34.704C116.488 34.5141 115.955 34.1986 115.508 33.7566L116.037 31.8432C116.366 32.3505 116.789 32.7532 117.308 33.0519C117.826 33.3473 118.379 33.4953 118.965 33.4953C119.531 33.4953 119.955 33.3693 120.236 33.1172C120.521 32.862 120.663 32.5511 120.663 32.1839C120.663 31.7638 120.512 31.4558 120.211 31.2598C119.912 31.0671 119.645 30.9317 119.407 30.8538L117.979 30.3544C117.718 30.255 117.406 30.1117 117.043 29.9251C116.677 29.7351 116.358 29.4616 116.088 29.1037C115.817 28.749 115.681 28.2856 115.681 27.7129C115.681 27.1935 115.817 26.7175 116.088 26.2849C116.358 25.8522 116.742 25.5101 117.237 25.2581C117.731 25.0029 118.314 24.8754 118.985 24.8754C119.514 24.8754 120.067 24.9627 120.643 25.1368C121.219 25.3081 121.707 25.5988 122.107 26.0095L121.578 27.923C121.297 27.4469 120.914 27.0689 120.429 26.7889C119.948 26.5056 119.448 26.3642 118.929 26.3642C118.448 26.3642 118.069 26.4888 117.791 26.7376C117.516 26.9863 117.379 27.2729 117.379 27.5963C117.379 27.8576 117.472 28.091 117.658 28.2963C117.848 28.5017 118.131 28.6683 118.508 28.7957L119.936 29.2997C120.197 29.387 120.517 29.527 120.897 29.7197C121.28 29.9157 121.619 30.1971 121.914 30.5644C122.209 30.9317 122.356 31.4278 122.356 32.0532C122.356 32.9273 122.024 33.6353 121.36 34.1766C120.695 34.718 119.856 34.9887 118.843 34.9887Z" fill="white"/>
</g>
</g>
</g>
</g>
<g clip-path="url(#clip7_799_1555)">
<g clip-path="url(#clip8_799_1555)">
<path d="M28.1109 25.2858L16.2658 31.2392C15.9506 31.4046 15.5903 31.5286 15.23 31.5286C14.9147 31.5286 14.5994 31.4459 14.2842 31.3219L9.32996 28.8C9.19485 28.7173 9.01469 28.676 8.83454 28.676L7.43835 28.7173V21.3169H12.2124C12.6177 21.3169 13.0231 21.4409 13.2933 21.7303L15.3651 23.6321C15.6353 23.8802 15.9956 24.0042 16.3559 23.9215L26.9399 22.5158C27.7056 22.3918 28.4712 22.8052 28.7865 23.4667C29.0567 24.1282 28.7865 24.9137 28.1109 25.2858Z" fill="white"/>
<path d="M6.5376 20.5314V29.5442C6.5376 30.1643 5.99714 30.6604 5.32156 30.6604H1.31316C0.952856 30.6604 0.637589 30.5364 0.412398 30.2884C0.187207 30.0403 0.0520922 29.7509 0.0971304 29.4201L1.04293 20.4074C1.08797 19.8286 1.62843 19.3738 2.25897 19.3738H5.3666C5.99714 19.4151 6.5376 19.9112 6.5376 20.5314Z" fill="white"/>
<path d="M19.6888 15.9837C18.698 17.0586 18.4277 18.4229 18.4277 19.4152C20.2743 19.7046 22.2109 20.5728 24.1476 22.0611L16.1758 23.136C15.8606 23.0533 16.2209 23.1774 13.9239 21.1516C13.5186 20.7795 13.0682 20.5728 12.5277 20.5314C14.1941 19.6632 15.8155 19.2498 17.527 19.3325C17.4819 17.8028 16.8514 15.3635 13.7888 14.6194C9.1949 17.7201 6.89795 13.8752 6.89795 8.66595C6.89795 8.45924 7.0781 8.25252 7.34833 8.25252C12.4827 8.08715 17.0315 9.78222 14.3293 13.9165C16.401 14.5367 17.4369 15.8596 17.9323 17.1413C18.1575 16.6038 18.4277 16.0664 18.8781 15.5702C13.0682 10.7331 18.4277 6.8882 25.9041 5.35851C26.1293 5.31716 26.3545 5.44119 26.4445 5.64791C28.3812 12.5522 26.94 18.5883 19.6888 15.9837Z" fill="white"/>
</g>
</g>
</g>
</g>
</g>
<defs>
<clipPath id="clip0_799_1555">
<rect width="127" height="35.6153" fill="white" transform="translate(0 0.631836)"/>
</clipPath>
<clipPath id="clip1_799_1555">
<rect width="126.823" height="35.5527" fill="white" transform="translate(0.088501 0.66333)"/>
</clipPath>
<clipPath id="clip2_799_1555">
<rect width="126.823" height="35.5527" fill="white" transform="translate(0.088501 0.66333)"/>
</clipPath>
<clipPath id="clip3_799_1555">
<rect width="88.0557" height="35.3758" fill="white" transform="translate(38.8557 0.751709)"/>
</clipPath>
<clipPath id="clip4_799_1555">
<rect width="88.0557" height="35.3758" fill="white" transform="translate(38.8557 0.751709)"/>
</clipPath>
<clipPath id="clip5_799_1555">
<rect width="88.0557" height="35.3758" fill="white" transform="translate(38.8557 0.751709)"/>
</clipPath>
<clipPath id="clip6_799_1555">
<rect width="88.0557" height="35.3758" fill="white" transform="translate(38.8557 0.751709)"/>
</clipPath>
<clipPath id="clip7_799_1555">
<rect width="28.8015" height="26.1781" fill="white" transform="translate(0.088501 5.35059)"/>
</clipPath>
<clipPath id="clip8_799_1555">
<rect width="28.8015" height="26.1781" fill="white" transform="translate(0.088501 5.35059)"/>
</clipPath>
</defs>
</svg>
