<svg width="128" height="33" viewBox="0 0 128 33" fill="none" xmlns="http://www.w3.org/2000/svg">
<g clip-path="url(#clip0_832_1558)">
<rect width="64" height="28" transform="translate(64 3)" fill="white"/>
<g clip-path="url(#clip1_832_1558)">
<g clip-path="url(#clip2_832_1558)">
<g clip-path="url(#clip3_832_1558)">
<path d="M66.35 16.1357H64.8867V4.5923H67.7874C68.5142 4.5923 69.1387 4.73747 69.6609 5.02818C70.1808 5.31889 70.5846 5.70158 70.8729 6.17698C71.1585 6.65238 71.3015 7.17174 71.3015 7.7358C71.3015 8.36856 71.1215 8.93631 70.762 9.43868C70.4025 9.94363 69.911 10.3167 69.2876 10.5579L73.1639 16.1357H71.4567L67.7874 10.8239H66.35V16.1357ZM66.35 5.89994V9.59382H67.7874C68.2826 9.59382 68.6864 9.50258 68.9994 9.32047C69.3124 9.13578 69.5426 8.90048 69.6904 8.61494C69.8408 8.32682 69.9158 8.03389 69.9158 7.7358C69.9158 7.19649 69.7211 6.75581 69.332 6.41339C68.9429 6.07096 68.4278 5.89994 67.7874 5.89994H66.35ZM77.768 16.2391C77.0659 16.2391 76.4241 16.0618 75.8428 15.7072C75.2616 15.3526 74.7971 14.8761 74.4498 14.2777C74.105 13.6767 73.9324 13.0132 73.9324 12.2867C73.9324 11.5601 74.105 10.8978 74.4498 10.2994C74.7971 9.70094 75.2616 9.22443 75.8428 8.86982C76.4241 8.51521 77.0659 8.3379 77.768 8.3379C78.2975 8.3379 78.7964 8.43653 79.2645 8.63341C79.7301 8.8303 80.134 9.10364 80.4766 9.45345V8.44133H81.7588V16.1357H80.4766V15.1236C80.134 15.466 79.7301 15.7367 79.2645 15.9362C78.7964 16.1383 78.2975 16.2391 77.768 16.2391ZM77.9491 14.9795C78.4368 14.9795 78.8791 14.8587 79.2756 14.6175C79.6721 14.3737 79.9888 14.0486 80.2253 13.6423C80.4592 13.236 80.5763 12.7842 80.5763 12.2867C80.5763 11.7917 80.4592 11.341 80.2253 10.9347C79.9888 10.5284 79.6721 10.2033 79.2756 9.95952C78.8791 9.71572 78.4368 9.59382 77.9491 9.59382C77.4613 9.59382 77.0179 9.71572 76.6188 9.95952C76.2223 10.2033 75.9057 10.5284 75.6692 10.9347C75.4353 11.341 75.3181 11.7917 75.3181 12.2867C75.3181 12.7842 75.4353 13.236 75.6692 13.6423C75.9057 14.0486 76.2223 14.3737 76.6188 14.6175C77.0179 14.8587 77.4613 14.9795 77.9491 14.9795ZM85.6091 16.1357H84.2234V8.44133H85.6091V16.1357ZM84.9144 7.05612C84.6584 7.05612 84.4403 6.96636 84.2604 6.78647C84.0804 6.60658 83.9906 6.38864 83.9906 6.13265C83.9906 5.86669 84.0804 5.64617 84.2604 5.47145C84.4403 5.29673 84.6584 5.20918 84.9144 5.20918C85.1805 5.20918 85.4011 5.29673 85.5759 5.47145C85.7506 5.64617 85.8382 5.86669 85.8382 6.13265C85.8382 6.38864 85.7506 6.60658 85.5759 6.78647C85.4011 6.96636 85.1805 7.05612 84.9144 7.05612ZM89.4558 16.1357H88.0701V8.44133H89.3523V9.68248C89.6357 9.22924 90.0015 8.88349 90.4498 8.64449C90.9006 8.4055 91.3857 8.28619 91.9057 8.28619C92.4551 8.28619 92.9625 8.42027 93.4281 8.68882C93.8936 8.95958 94.2717 9.34892 94.5625 9.85609C94.8533 10.3658 94.9985 10.9838 94.9985 11.7104V16.1357H93.6128V11.9025C93.6128 11.2967 93.4318 10.76 93.0696 10.292C92.7049 9.82654 92.1939 9.59382 91.5361 9.59382C90.9966 9.59382 90.5152 9.78849 90.0913 10.1775C89.6675 10.5664 89.4558 11.1294 89.4558 11.8656V16.1357ZM101.299 16.2391C100.769 16.2391 100.273 16.1383 99.8096 15.9362C99.3488 15.7367 98.9423 15.466 98.5902 15.1236V16.1357H97.308V3.82397H98.6936V9.35003C99.0362 9.03494 99.4301 8.78745 99.8761 8.60755C100.32 8.42766 100.794 8.3379 101.299 8.3379C102.008 8.3379 102.652 8.51521 103.231 8.86982C103.808 9.22443 104.27 9.70094 104.617 10.2994C104.962 10.8978 105.134 11.5601 105.134 12.2867C105.134 13.0132 104.962 13.6767 104.617 14.2777C104.27 14.8761 103.808 15.3526 103.231 15.7072C102.652 16.0618 102.008 16.2391 101.299 16.2391ZM101.118 14.9795C101.605 14.9795 102.049 14.8587 102.448 14.6175C102.844 14.3737 103.161 14.0486 103.398 13.6423C103.631 13.236 103.749 12.7842 103.749 12.2867C103.749 11.7917 103.631 11.341 103.398 10.9347C103.161 10.5284 102.844 10.2033 102.448 9.95952C102.049 9.71572 101.605 9.59382 101.118 9.59382C100.632 9.59382 100.19 9.71572 99.7911 9.95952C99.3946 10.2033 99.0779 10.5284 98.8415 10.9347C98.6076 11.341 98.4904 11.7917 98.4904 12.2867C98.4904 12.7842 98.6076 13.236 98.8415 13.6423C99.0779 14.0486 99.3946 14.3737 99.7911 14.6175C100.19 14.8587 100.632 14.9795 101.118 14.9795ZM110.577 16.2908C109.831 16.2908 109.15 16.1109 108.534 15.7515C107.918 15.3921 107.429 14.9082 107.067 14.2998C106.702 13.694 106.52 13.0229 106.52 12.2867C106.52 11.5431 106.702 10.8693 107.067 10.2661C107.429 9.66511 107.918 9.18491 108.534 8.82549C109.15 8.46608 109.831 8.28619 110.577 8.28619C111.328 8.28619 112.01 8.46608 112.621 8.82549C113.234 9.18491 113.722 9.66511 114.084 10.2661C114.449 10.8693 114.631 11.5431 114.631 12.2867C114.631 13.0229 114.449 13.694 114.084 14.2998C113.722 14.9082 113.234 15.3921 112.621 15.7515C112.01 16.1109 111.328 16.2908 110.577 16.2908ZM110.577 14.9795C111.072 14.9795 111.521 14.8587 111.922 14.6175C112.324 14.3737 112.645 14.0486 112.887 13.6423C113.126 13.236 113.245 12.7842 113.245 12.2867C113.245 11.7917 113.126 11.341 112.887 10.9347C112.645 10.5284 112.324 10.2033 111.922 9.95952C111.521 9.71572 111.072 9.59382 110.577 9.59382C110.08 9.59382 109.63 9.71572 109.229 9.95952C108.827 10.2033 108.507 10.5284 108.268 10.9347C108.026 11.341 107.906 11.7917 107.906 12.2867C107.906 12.7842 108.026 13.236 108.268 13.6423C108.507 14.0486 108.827 14.3737 109.229 14.6175C109.63 14.8587 110.08 14.9795 110.577 14.9795ZM120.916 13.0845L119.364 16.5199L115.477 8.44133H117.055L118.607 11.7732C118.752 12.0909 118.891 12.3986 119.024 12.6967C119.157 12.997 119.288 13.3738 119.416 13.827C119.552 13.3812 119.691 13.0044 119.834 12.6967C119.974 12.389 120.108 12.0809 120.236 11.7732L121.788 8.07933L123.329 11.7732C123.457 12.0909 123.59 12.3986 123.728 12.6967C123.864 12.997 123.995 13.3738 124.124 13.827C124.252 13.3738 124.385 12.9959 124.523 12.693C124.658 12.3875 124.799 12.0809 124.944 11.7732L126.522 8.44133H128L124.113 16.5199L122.546 13.0845C122.41 12.7768 122.276 12.4702 122.143 12.1648C122.01 11.8619 121.874 11.4962 121.737 11.0677C121.608 11.4962 121.477 11.8619 121.341 12.1648C121.203 12.4702 121.062 12.7768 120.916 13.0845Z" fill="#003912"/>
<path d="M70.0194 30.176C69.1817 30.176 68.3983 30.0198 67.6693 29.7069C66.9424 29.394 66.3032 28.9618 65.7515 28.4103C65.1998 27.8588 64.7697 27.222 64.4619 26.5006C64.1541 25.7766 64 24.9998 64 24.1698C64 23.3423 64.1563 22.5666 64.4693 21.8426C64.7823 21.1212 65.2146 20.4844 65.7663 19.9329C66.318 19.3814 66.9572 18.9492 67.6841 18.6363C68.4109 18.3235 69.1928 18.1672 70.0305 18.1672C70.8534 18.1672 71.6231 18.3198 72.34 18.6252C73.0594 18.9281 73.6924 19.3444 74.2393 19.8738L73.818 21.6432C73.4237 21.0126 72.8953 20.5065 72.2328 20.125C71.5703 19.7434 70.836 19.5524 70.0305 19.5524C69.1854 19.5524 68.422 19.7604 67.7395 20.1767C67.0596 20.5904 66.519 21.1456 66.1173 21.8426C65.7157 22.5397 65.515 23.3154 65.515 24.1698C65.515 25.0094 65.7145 25.7792 66.1136 26.4784C66.5101 27.1803 67.0485 27.7406 67.7284 28.1592C68.4083 28.5777 69.1721 28.7871 70.0194 28.7871C70.4972 28.7871 70.9532 28.7306 71.3866 28.6172C71.8178 28.5016 72.2132 28.3365 72.5727 28.1222V25.0932H69.3912V23.7856H73.9843V28.8647C73.4622 29.3006 72.8562 29.6282 72.1663 29.8473C71.479 30.0663 70.7632 30.176 70.0194 30.176ZM79.8226 30.0467C79.1206 30.0467 78.4787 29.8694 77.8975 29.5148C77.3162 29.1602 76.8517 28.6837 76.5044 28.0853C76.157 27.4843 75.9834 26.8209 75.9834 26.0943C75.9834 25.3677 76.157 24.7054 76.5044 24.107C76.8517 23.5086 77.3162 23.0321 77.8975 22.6774C78.4787 22.3228 79.1206 22.1455 79.8226 22.1455C80.3521 22.1455 80.8499 22.2441 81.3155 22.441C81.7811 22.6379 82.1849 22.9113 82.5275 23.2611V22.2489H83.8097V29.9433H82.5275V28.9312C82.1849 29.2736 81.7811 29.5444 81.3155 29.7438C80.8499 29.9459 80.3521 30.0467 79.8226 30.0467ZM80 28.7871C80.4878 28.7871 80.9312 28.6663 81.3303 28.4251C81.7267 28.1813 82.0434 27.8563 82.2799 27.4499C82.5138 27.0436 82.6309 26.5918 82.6309 26.0943C82.6309 25.5993 82.5138 25.1486 82.2799 24.7423C82.0434 24.336 81.7267 24.0109 81.3303 23.7671C80.9312 23.5233 80.4878 23.4014 80 23.4014C79.5122 23.4014 79.0699 23.5233 78.6734 23.7671C78.2744 24.0109 77.9577 24.336 77.7238 24.7423C77.4873 25.1486 77.3691 25.5993 77.3691 26.0943C77.3691 26.5918 77.4873 27.0436 77.7238 27.4499C77.9577 27.8563 78.2744 28.1813 78.6734 28.4251C79.0699 28.6663 79.5122 28.7871 80 28.7871ZM87.66 29.9433H86.2744V22.2489H87.5566V23.66C87.83 23.2068 88.1933 22.8448 88.6467 22.574C89.1023 22.3055 89.6418 22.1714 90.2651 22.1714L90.6125 23.5566C90.4499 23.5049 90.2614 23.479 90.0471 23.479C89.3277 23.479 88.7501 23.708 88.3141 24.1661C87.8781 24.6241 87.66 25.2753 87.66 26.1201V29.9433ZM95.346 30.0467C94.6439 30.0467 94.002 29.8694 93.4208 29.5148C92.8395 29.1602 92.3751 28.6837 92.0277 28.0853C91.683 27.4843 91.5104 26.8209 91.5104 26.0943C91.5104 25.3677 91.683 24.7054 92.0277 24.107C92.3751 23.5086 92.8395 23.0321 93.4208 22.6774C94.002 22.3228 94.6439 22.1455 95.346 22.1455C95.8511 22.1455 96.3252 22.2353 96.7686 22.4152C97.2146 22.5951 97.6085 22.8426 97.951 23.1576V17.6316H99.3367V29.9433H98.0545V28.9312C97.712 29.2736 97.307 29.5444 96.8388 29.7438C96.3732 29.9459 95.8755 30.0467 95.346 30.0467ZM95.527 28.7871C96.0148 28.7871 96.4571 28.6663 96.8536 28.4251C97.2501 28.1813 97.5667 27.8563 97.8032 27.4499C98.0371 27.0436 98.1543 26.5918 98.1543 26.0943C98.1543 25.5993 98.0371 25.1486 97.8032 24.7423C97.5667 24.336 97.2501 24.0109 96.8536 23.7671C96.4571 23.5233 96.0148 23.4014 95.527 23.4014C95.0393 23.4014 94.5958 23.5233 94.1968 23.7671C93.8003 24.0109 93.4836 24.336 93.2471 24.7423C93.0132 25.1486 92.8961 25.5993 92.8961 26.0943C92.8961 26.5918 93.0132 27.0436 93.2471 27.4499C93.4836 27.8563 93.8003 28.1813 94.1968 28.4251C94.5958 28.6663 95.0393 28.7871 95.527 28.7871ZM105.471 30.0984C104.665 30.0984 103.943 29.9186 103.305 29.5591C102.67 29.1997 102.17 28.7095 101.805 28.089C101.443 27.471 101.262 26.7802 101.262 26.0167C101.262 25.2901 101.437 24.6304 101.787 24.0368C102.137 23.4432 102.61 22.9704 103.206 22.6183C103.799 22.2685 104.456 22.0938 105.175 22.0938C105.885 22.0938 106.534 22.2626 107.122 22.5999C107.714 22.9371 108.184 23.3929 108.534 23.9666C108.886 24.5403 109.062 25.1904 109.062 25.917V26.4784H104.033C103.809 26.4784 103.582 26.4711 103.353 26.4563C103.122 26.4389 102.895 26.4131 102.673 26.3787C102.767 27.061 103.076 27.6335 103.601 28.0964C104.128 28.557 104.755 28.7871 105.482 28.7871C105.97 28.7871 106.423 28.6763 106.842 28.4547C107.26 28.233 107.598 27.9386 107.854 27.5718L108.242 29.1491C107.873 29.4472 107.451 29.6799 106.978 29.8473C106.503 30.0146 106 30.0984 105.471 30.0984ZM102.633 25.4405C103.096 25.364 103.563 25.326 104.033 25.326H106.587C106.774 25.326 106.96 25.3322 107.145 25.3444C107.327 25.3566 107.513 25.3714 107.703 25.3887C107.582 24.7903 107.282 24.2965 106.805 23.9075C106.324 23.5185 105.781 23.3239 105.175 23.3239C104.549 23.3239 104.001 23.5318 103.531 23.9481C103.06 24.3618 102.761 24.8594 102.633 25.4405ZM112.296 29.9433H110.91V22.2489H112.192V23.4901C112.476 23.0369 112.841 22.6911 113.29 22.4521C113.738 22.2131 114.223 22.0938 114.745 22.0938C115.292 22.0938 115.799 22.2279 116.264 22.4964C116.732 22.7672 117.111 23.1565 117.402 23.6637C117.693 24.1735 117.838 24.7914 117.838 25.518V29.9433H116.453V25.7101C116.453 25.1043 116.27 24.5676 115.906 24.0996C115.544 23.6342 115.033 23.4014 114.372 23.4014C113.835 23.4014 113.355 23.5961 112.931 23.9851C112.507 24.374 112.296 24.937 112.296 25.6732V29.9433ZM122.136 30.0984C121.742 30.0984 121.32 30.0235 120.872 29.8731C120.424 29.7228 120.037 29.4731 119.712 29.1233L120.096 27.6088C120.335 28.0103 120.643 28.3291 121.02 28.5655C121.397 28.7993 121.798 28.9164 122.224 28.9164C122.636 28.9164 122.944 28.8167 123.148 28.6172C123.355 28.4151 123.459 28.1691 123.459 27.8784C123.459 27.546 123.349 27.3022 123.13 27.147C122.913 26.9945 122.719 26.8874 122.546 26.8257L121.508 26.4304C121.318 26.3517 121.091 26.2383 120.828 26.0906C120.562 25.9402 120.33 25.7238 120.133 25.4405C119.936 25.1597 119.837 24.7929 119.837 24.3397C119.837 23.9286 119.936 23.5518 120.133 23.2094C120.33 22.8669 120.609 22.5962 120.968 22.3967C121.328 22.1946 121.751 22.0938 122.239 22.0938C122.624 22.0938 123.025 22.1629 123.444 22.3007C123.863 22.4362 124.217 22.6664 124.508 22.9914L124.124 24.5059C123.919 24.1291 123.641 23.8299 123.289 23.6083C122.939 23.3841 122.576 23.2722 122.199 23.2722C121.849 23.2722 121.573 23.3708 121.371 23.5677C121.171 23.7645 121.072 23.9914 121.072 24.2473C121.072 24.4542 121.139 24.6389 121.275 24.8014C121.413 24.964 121.618 25.0958 121.892 25.1967L122.93 25.5956C123.12 25.6647 123.353 25.7755 123.629 25.9281C123.907 26.0832 124.153 26.3059 124.368 26.5966C124.582 26.8874 124.689 27.28 124.689 27.775C124.689 28.4669 124.448 29.0272 123.965 29.4557C123.482 29.8842 122.872 30.0984 122.136 30.0984Z" fill="#003912"/>
</g>
</g>
</g>
</g>
<g clip-path="url(#clip4_832_1558)">
<g clip-path="url(#clip5_832_1558)">
<path d="M32.1069 25.1304L18.5352 32.6353C18.174 32.8437 17.7611 33.0001 17.3483 33.0001C16.9871 33.0001 16.6259 32.8958 16.2646 32.7395L10.5882 29.5604C10.4334 29.4561 10.227 29.404 10.0206 29.404L8.4209 29.4561V20.1272H13.8909C14.3553 20.1272 14.8197 20.2835 15.1294 20.6484L17.5031 23.0457C17.8127 23.3584 18.2256 23.5148 18.6384 23.4106L30.7652 21.6386C31.6425 21.4822 32.5198 22.0034 32.881 22.8373C33.1906 23.6711 32.881 24.6614 32.1069 25.1304Z" fill="url(#paint0_linear_832_1558)"/>
<path d="M7.3892 19.137V30.4985C7.3892 31.2803 6.76995 31.9057 5.9959 31.9057H1.40318C0.990355 31.9057 0.62913 31.7493 0.371112 31.4366C0.113094 31.1239 -0.0417162 30.7591 0.00988733 30.3421L1.09356 18.9807C1.14517 18.251 1.76441 17.6777 2.48686 17.6777H6.0475C6.76995 17.7299 7.3892 18.3553 7.3892 19.137Z" fill="#004315"/>
<path d="M22.4572 13.404C21.3219 14.7591 21.0123 16.4789 21.0123 17.7297C23.128 18.0946 25.347 19.189 27.5659 21.0652L18.4321 22.4203C18.0709 22.316 18.4837 22.4724 15.8519 19.9187C15.3875 19.4496 14.8714 19.189 14.2522 19.1369C16.1615 18.0424 18.0193 17.5213 19.9802 17.6255C19.9286 15.6972 19.2061 12.6223 15.6971 11.6842C10.4335 15.5929 7.80176 10.7461 7.80176 4.17934C7.80176 3.91876 8.00817 3.65817 8.31779 3.65817C14.2006 3.4497 19.4126 5.5865 16.3163 10.7982C18.6901 11.5799 19.877 13.2477 20.4446 14.8633C20.7026 14.1858 21.0123 13.5083 21.5283 12.8829C14.8714 6.78519 21.0123 1.93831 29.5785 0.0099857C29.8365 -0.0421312 30.0945 0.11422 30.1977 0.374804C32.4167 9.07833 30.7653 16.6874 22.4572 13.404Z" fill="#009F32"/>
</g>
</g>
<path d="M49.1703 3.92915C49.1703 3.41599 48.9083 3 48.5852 3C48.262 3 48 3.41599 48 3.92915V30.446C48 30.9592 48.262 31.3752 48.5852 31.3752C48.9083 31.3752 49.1703 30.9592 49.1703 30.446V3.92915Z" fill="#003912"/>
<defs>
<linearGradient id="paint0_linear_832_1558" x1="20.7103" y1="20.1272" x2="20.7103" y2="33.0001" gradientUnits="userSpaceOnUse">
<stop stop-color="#009F32"/>
<stop offset="0.494" stop-color="#014716"/>
<stop offset="1" stop-color="#003912"/>
</linearGradient>
<clipPath id="clip0_832_1558">
<rect width="64" height="28" fill="white" transform="translate(64 3)"/>
</clipPath>
<clipPath id="clip1_832_1558">
<rect width="64" height="28" fill="white" transform="translate(64 3)"/>
</clipPath>
<clipPath id="clip2_832_1558">
<rect width="64" height="28" fill="white" transform="translate(64 3)"/>
</clipPath>
<clipPath id="clip3_832_1558">
<rect width="64" height="28" fill="white" transform="translate(64 3)"/>
</clipPath>
<clipPath id="clip4_832_1558">
<rect width="33" height="33" fill="white"/>
</clipPath>
<clipPath id="clip5_832_1558">
<rect width="33" height="33" fill="white"/>
</clipPath>
</defs>
</svg>
