<svg width="70" height="70" viewBox="0 0 70 70" fill="none" xmlns="http://www.w3.org/2000/svg">
<g filter="url(#filter0_d_511_1229)">
<rect x="4" y="62" width="62" height="62" rx="31" transform="rotate(-90 4 62)" fill="#003912" shape-rendering="crispEdges"/>
<path d="M28.3333 30.1667C27.8731 30.1667 27.5 30.5398 27.5 31C27.5 31.4602 27.8731 31.8333 28.3333 31.8333L40.0715 31.8333L36.0774 35.8274C35.752 36.1528 35.752 36.6805 36.0774 37.0059C36.4028 37.3314 36.9305 37.3314 37.2559 37.0059L42.0833 32.1785C42.7342 31.5276 42.7342 30.4724 42.0833 29.8215L37.2559 24.9941C36.9305 24.6686 36.4028 24.6686 36.0774 24.9941C35.752 25.3195 35.752 25.8472 36.0774 26.1726L40.0715 30.1667L28.3333 30.1667Z" fill="white"/>
</g>
<defs>
<filter id="filter0_d_511_1229" x="0" y="0" width="70" height="70" filterUnits="userSpaceOnUse" color-interpolation-filters="sRGB">
<feFlood flood-opacity="0" result="BackgroundImageFix"/>
<feColorMatrix in="SourceAlpha" type="matrix" values="0 0 0 0 0 0 0 0 0 0 0 0 0 0 0 0 0 0 127 0" result="hardAlpha"/>
<feOffset dy="4"/>
<feGaussianBlur stdDeviation="2"/>
<feComposite in2="hardAlpha" operator="out"/>
<feColorMatrix type="matrix" values="0 0 0 0 0 0 0 0 0 0 0 0 0 0 0 0 0 0 0.25 0"/>
<feBlend mode="normal" in2="BackgroundImageFix" result="effect1_dropShadow_511_1229"/>
<feBlend mode="normal" in="SourceGraphic" in2="effect1_dropShadow_511_1229" result="shape"/>
</filter>
</defs>
</svg>
