<svg width="32" height="31" viewBox="0 0 32 31" fill="none" xmlns="http://www.w3.org/2000/svg">
<g clip-path="url(#clip0_366_1477)">
<rect width="32" height="31" rx="15.5" fill="#063C17"/>
<g clip-path="url(#clip1_366_1477)" filter="url(#filter0_d_366_1477)">
<path d="M8.125 8.75H9.4375L10 11M10 11L11.875 18.5H21.625L23.5 11H10Z" stroke="white" stroke-width="2.66667" stroke-linecap="round" stroke-linejoin="round"/>
<path d="M11.875 22.25C12.4963 22.25 13 21.7463 13 21.125C13 20.5037 12.4963 20 11.875 20C11.2537 20 10.75 20.5037 10.75 21.125C10.75 21.7463 11.2537 22.25 11.875 22.25Z" stroke="white" stroke-width="2.66667" stroke-linecap="round" stroke-linejoin="round"/>
<path d="M21.625 22.25C22.2463 22.25 22.75 21.7463 22.75 21.125C22.75 20.5037 22.2463 20 21.625 20C21.0037 20 20.5 20.5037 20.5 21.125C20.5 21.7463 21.0037 22.25 21.625 22.25Z" stroke="white" stroke-width="2.66667" stroke-linecap="round" stroke-linejoin="round"/>
<path d="M15.25 14.75H18.25M16.75 16.25V13.25" stroke="white" stroke-width="2.66667" stroke-linecap="round" stroke-linejoin="round"/>
</g>
</g>
<defs>
<filter id="filter0_d_366_1477" x="3" y="6.5" width="26" height="26" filterUnits="userSpaceOnUse" color-interpolation-filters="sRGB">
<feFlood flood-opacity="0" result="BackgroundImageFix"/>
<feColorMatrix in="SourceAlpha" type="matrix" values="0 0 0 0 0 0 0 0 0 0 0 0 0 0 0 0 0 0 127 0" result="hardAlpha"/>
<feOffset dy="4"/>
<feGaussianBlur stdDeviation="2"/>
<feComposite in2="hardAlpha" operator="out"/>
<feColorMatrix type="matrix" values="0 0 0 0 0 0 0 0 0 0 0 0 0 0 0 0 0 0 0.25 0"/>
<feBlend mode="normal" in2="BackgroundImageFix" result="effect1_dropShadow_366_1477"/>
<feBlend mode="normal" in="SourceGraphic" in2="effect1_dropShadow_366_1477" result="shape"/>
</filter>
<clipPath id="clip0_366_1477">
<rect width="32" height="31" rx="15.5" fill="white"/>
</clipPath>
<clipPath id="clip1_366_1477">
<rect width="18" height="18" fill="white" transform="translate(7 6.5)"/>
</clipPath>
</defs>
</svg>
