<svg width="62" height="62" viewBox="0 0 62 62" fill="none" xmlns="http://www.w3.org/2000/svg">
<rect y="62" width="62" height="62" rx="31" transform="rotate(-90 0 62)" fill="#003912"/>
<path d="M24.3333 30.1667C23.8731 30.1667 23.5 30.5398 23.5 31C23.5 31.4602 23.8731 31.8333 24.3333 31.8333L36.0715 31.8333L32.0774 35.8274C31.752 36.1528 31.752 36.6805 32.0774 37.0059C32.4028 37.3314 32.9305 37.3314 33.2559 37.0059L38.0833 32.1785C38.7342 31.5276 38.7342 30.4724 38.0833 29.8215L33.2559 24.9941C32.9305 24.6686 32.4028 24.6686 32.0774 24.9941C31.752 25.3195 31.752 25.8472 32.0774 26.1726L36.0715 30.1667L24.3333 30.1667Z" fill="white"/>
</svg>
