<svg width="33" height="33" viewBox="0 0 33 33" fill="none" xmlns="http://www.w3.org/2000/svg">
<g clip-path="url(#clip0_366_1449)">
<g clip-path="url(#clip1_366_1449)">
<path d="M32.1069 25.1304L18.5352 32.6353C18.174 32.8437 17.7611 33.0001 17.3483 33.0001C16.9871 33.0001 16.6259 32.8958 16.2646 32.7395L10.5882 29.5604C10.4334 29.4561 10.227 29.404 10.0206 29.404L8.4209 29.4561V20.1272H13.8909C14.3553 20.1272 14.8197 20.2835 15.1294 20.6484L17.5031 23.0457C17.8127 23.3584 18.2256 23.5148 18.6384 23.4106L30.7652 21.6386C31.6425 21.4822 32.5198 22.0034 32.881 22.8373C33.1906 23.6711 32.881 24.6614 32.1069 25.1304Z" fill="url(#paint0_linear_366_1449)"/>
<path d="M7.3892 19.137V30.4985C7.3892 31.2803 6.76995 31.9057 5.9959 31.9057H1.40318C0.990355 31.9057 0.62913 31.7493 0.371112 31.4366C0.113094 31.1239 -0.0417162 30.7591 0.00988733 30.3421L1.09356 18.9807C1.14517 18.251 1.76441 17.6777 2.48686 17.6777H6.0475C6.76995 17.7299 7.3892 18.3553 7.3892 19.137Z" fill="#004315"/>
<path d="M22.4572 13.404C21.3219 14.7591 21.0123 16.4789 21.0123 17.7297C23.128 18.0946 25.347 19.189 27.5659 21.0652L18.4321 22.4203C18.0709 22.316 18.4837 22.4724 15.8519 19.9187C15.3875 19.4496 14.8714 19.189 14.2522 19.1369C16.1615 18.0424 18.0193 17.5213 19.9802 17.6255C19.9286 15.6972 19.2061 12.6223 15.6971 11.6842C10.4335 15.5929 7.80176 10.7461 7.80176 4.17934C7.80176 3.91876 8.00817 3.65817 8.31779 3.65817C14.2006 3.4497 19.4126 5.5865 16.3163 10.7982C18.6901 11.5799 19.877 13.2477 20.4446 14.8633C20.7026 14.1858 21.0123 13.5083 21.5283 12.8829C14.8714 6.78519 21.0123 1.93831 29.5785 0.0099857C29.8365 -0.0421312 30.0945 0.11422 30.1977 0.374804C32.4167 9.07833 30.7653 16.6874 22.4572 13.404Z" fill="#009F32"/>
</g>
</g>
<defs>
<linearGradient id="paint0_linear_366_1449" x1="20.7103" y1="20.1272" x2="20.7103" y2="33.0001" gradientUnits="userSpaceOnUse">
<stop stop-color="#009F32"/>
<stop offset="0.494" stop-color="#014716"/>
<stop offset="1" stop-color="#003912"/>
</linearGradient>
<clipPath id="clip0_366_1449">
<rect width="33" height="33" fill="white"/>
</clipPath>
<clipPath id="clip1_366_1449">
<rect width="33" height="33" fill="white"/>
</clipPath>
</defs>
</svg>
