<svg width="39" height="39" viewBox="0 0 39 39" fill="none" xmlns="http://www.w3.org/2000/svg">
<path fill-rule="evenodd" clip-rule="evenodd" d="M27.6807 0.640869C28.4469 0.640869 29.1271 1.13113 29.3694 1.85798L31.3129 7.68865L37.1436 9.63221C37.8704 9.8745 38.3607 10.5547 38.3607 11.3209C38.3607 12.087 37.8704 12.7672 37.1436 13.0095L31.3129 14.9531L29.3694 20.7838C29.1271 21.5106 28.4469 22.0009 27.6807 22.0009C26.9145 22.0009 26.2343 21.5106 25.9921 20.7838L24.0485 14.9531L18.2178 13.0095C17.491 12.7672 17.0007 12.087 17.0007 11.3209C17.0007 10.5547 17.491 9.8745 18.2178 9.63221L24.0485 7.68866L25.9921 1.85798C26.2343 1.13113 26.9145 0.640869 27.6807 0.640869ZM27.6807 8.04973L27.1444 9.65875C26.9672 10.1903 26.5501 10.6074 26.0186 10.7845L24.4096 11.3209L26.0186 11.8572C26.5501 12.0344 26.9672 12.4515 27.1444 12.983L27.6807 14.592L28.2171 12.983C28.3942 12.4515 28.8113 12.0344 29.3428 11.8572L30.9519 11.3209L29.3428 10.7845C28.8113 10.6074 28.3942 10.1903 28.2171 9.65875L27.6807 8.04973ZM11.2312 5.98087L13.4407 5.98087C14.4238 5.98087 15.2207 6.7778 15.2207 7.76087C15.2207 8.74394 14.4238 9.54087 13.4407 9.54087H11.3047C9.78 9.54087 8.74352 9.54225 7.94236 9.60771C7.16198 9.67147 6.7629 9.78704 6.48451 9.92889C5.81465 10.2702 5.27004 10.8148 4.92873 11.4847C4.78688 11.7631 4.67132 12.1621 4.60756 12.9425C4.5421 13.7437 4.54071 14.7802 4.54071 16.3049V25.2394L6.98876 23.2809C7.63885 22.7608 8.56258 22.7608 9.21267 23.2809L12.4186 25.8457L17.5221 20.7422C18.2172 20.0471 19.3442 20.0471 20.0394 20.7422C20.7345 21.4373 20.7345 22.5644 20.0394 23.2595L13.8094 29.4895C13.168 30.1309 12.147 30.1874 11.4388 29.6208L8.10071 26.9504L4.76267 29.6208C4.69485 29.6751 4.62428 29.7236 4.55155 29.7663C4.5606 30.2649 4.57718 30.6874 4.60756 31.0592C4.67132 31.8396 4.78688 32.2387 4.92873 32.5171C5.27004 33.1869 5.81465 33.7315 6.48451 34.0728C6.7629 34.2147 7.16198 34.3303 7.94236 34.394C8.74352 34.4595 9.78 34.4609 11.3047 34.4609H22.6967C24.2214 34.4609 25.2579 34.4595 26.0591 34.394C26.8394 34.3303 27.2385 34.2147 27.5169 34.0728C28.1868 33.7315 28.7314 33.1869 29.0727 32.5171C29.2145 32.2387 29.3301 31.8396 29.3939 31.0592C29.4593 30.2581 29.4607 29.2216 29.4607 27.6969V25.5609C29.4607 24.5778 30.2576 23.7809 31.2407 23.7809C32.2238 23.7809 33.0207 24.5778 33.0207 25.5609V27.7704C33.0207 29.2033 33.0208 30.3858 32.942 31.3491C32.8603 32.3497 32.6849 33.2694 32.2447 34.1333C31.5621 35.473 30.4728 36.5622 29.1331 37.2448C28.2692 37.685 27.3495 37.8605 26.349 37.9422C25.3856 38.0209 24.2031 38.0209 22.7703 38.0209H11.2312C9.79833 38.0209 8.61578 38.0209 7.65246 37.9422C6.65193 37.8605 5.7322 37.685 4.8683 37.2448C3.52859 36.5622 2.43937 35.473 1.75675 34.1333C1.31657 33.2694 1.14113 32.3497 1.05938 31.3491C0.980672 30.3858 0.980691 29.2032 0.980714 27.7704V16.2314C0.980691 14.7985 0.980672 13.6159 1.05938 12.6526C1.14113 11.6521 1.31657 10.7324 1.75675 9.86846C2.43937 8.52874 3.52859 7.43952 4.8683 6.7569C5.7322 6.31672 6.65193 6.14128 7.65246 6.05953C8.61579 5.98083 9.79835 5.98084 11.2312 5.98087Z" fill="black"/>
</svg>
