<svg width="16" height="16" viewBox="0 0 16 16" fill="none" xmlns="http://www.w3.org/2000/svg">
<path d="M7.99967 1.33331C5.41967 1.33331 3.33301 3.41998 3.33301 5.99998C3.33301 8.77998 6.27967 12.6133 7.49301 14.0733C7.75967 14.3933 8.24634 14.3933 8.51301 14.0733C9.71967 12.6133 12.6663 8.77998 12.6663 5.99998C12.6663 3.41998 10.5797 1.33331 7.99967 1.33331ZM7.99967 7.66665C7.07967 7.66665 6.33301 6.91998 6.33301 5.99998C6.33301 5.07998 7.07967 4.33331 7.99967 4.33331C8.91967 4.33331 9.66634 5.07998 9.66634 5.99998C9.66634 6.91998 8.91967 7.66665 7.99967 7.66665Z" fill="white"/>
</svg>
