<svg width="16" height="16" viewBox="0 0 16 16" fill="none" xmlns="http://www.w3.org/2000/svg">
<path d="M13.333 2.66669H2.66634C1.93301 2.66669 1.33967 3.26669 1.33967 4.00002L1.33301 12C1.33301 12.7334 1.93301 13.3334 2.66634 13.3334H13.333C14.0663 13.3334 14.6663 12.7334 14.6663 12V4.00002C14.6663 3.26669 14.0663 2.66669 13.333 2.66669ZM13.0663 5.50002L8.35301 8.44669C8.13967 8.58002 7.85967 8.58002 7.64634 8.44669L2.93301 5.50002C2.76634 5.39335 2.66634 5.21335 2.66634 5.02002C2.66634 4.57335 3.15301 4.30669 3.53301 4.54002L7.99967 7.33335L12.4663 4.54002C12.8463 4.30669 13.333 4.57335 13.333 5.02002C13.333 5.21335 13.233 5.39335 13.0663 5.50002Z" fill="white"/>
</svg>
