<svg width="16" height="16" viewBox="0 0 16 16" fill="none" xmlns="http://www.w3.org/2000/svg">
<path d="M12.82 10.1732L11.1267 9.97986C10.72 9.9332 10.32 10.0732 10.0334 10.3599L8.80669 11.5865C6.92003 10.6265 5.37336 9.08653 4.41336 7.1932L5.64669 5.95986C5.93336 5.6732 6.07336 5.2732 6.02669 4.86653L5.83336 3.18653C5.75336 2.5132 5.18669 2.00653 4.50669 2.00653H3.35336C2.60003 2.00653 1.97336 2.6332 2.02003 3.38653C2.37336 9.07986 6.92669 13.6265 12.6134 13.9799C13.3667 14.0265 13.9934 13.3999 13.9934 12.6465V11.4932C14 10.8199 13.4934 10.2532 12.82 10.1732Z" fill="white"/>
</svg>
