<svg width="64" height="28" viewBox="0 0 64 28" fill="none" xmlns="http://www.w3.org/2000/svg">
<g clip-path="url(#clip0_366_1437)">
<rect width="64" height="28" fill="white"/>
<g clip-path="url(#clip1_366_1437)">
<g clip-path="url(#clip2_366_1437)">
<g clip-path="url(#clip3_366_1437)">
<path d="M2.35 13.1357H0.886719V1.5923H3.78741C4.51425 1.5923 5.13873 1.73747 5.66085 2.02818C6.18076 2.31889 6.58464 2.70158 6.87286 3.17698C7.1585 3.65238 7.3015 4.17174 7.3015 4.7358C7.3015 5.36856 7.12155 5.93631 6.76201 6.43868C6.40247 6.94363 5.91101 7.31671 5.28764 7.55793L9.16386 13.1357H7.4567L3.78741 7.82388H2.35V13.1357ZM2.35 2.89994V6.59382H3.78741C4.28256 6.59382 4.68644 6.50258 4.99942 6.32047C5.3124 6.13578 5.54261 5.90048 5.69041 5.61494C5.84081 5.32682 5.91582 5.03389 5.91582 4.7358C5.91582 4.19649 5.72108 3.75581 5.33198 3.41339C4.94289 3.07096 4.42778 2.89994 3.78741 2.89994H2.35ZM13.768 13.2391C13.0659 13.2391 12.4241 13.0618 11.8428 12.7072C11.2616 12.3526 10.7971 11.8761 10.4498 11.2777C10.105 10.6767 9.93245 10.0132 9.93245 9.28666C9.93245 8.56008 10.105 7.89776 10.4498 7.29935C10.7971 6.70094 11.2616 6.22443 11.8428 5.86982C12.4241 5.51521 13.0659 5.3379 13.768 5.3379C14.2975 5.3379 14.7964 5.43653 15.2645 5.63341C15.7301 5.8303 16.134 6.10364 16.4766 6.45345V5.44133H17.7588V13.1357H16.4766V12.1236C16.134 12.466 15.7301 12.7367 15.2645 12.9362C14.7964 13.1383 14.2975 13.2391 13.768 13.2391ZM13.9491 11.9795C14.4368 11.9795 14.8791 11.8587 15.2756 11.6175C15.6721 11.3737 15.9888 11.0486 16.2253 10.6423C16.4592 10.236 16.5763 9.78423 16.5763 9.28666C16.5763 8.79168 16.4592 8.34103 16.2253 7.9347C15.9888 7.52837 15.6721 7.20331 15.2756 6.95952C14.8791 6.71572 14.4368 6.59382 13.9491 6.59382C13.4613 6.59382 13.0179 6.71572 12.6188 6.95952C12.2223 7.20331 11.9057 7.52837 11.6692 7.9347C11.4353 8.34103 11.3181 8.79168 11.3181 9.28666C11.3181 9.78423 11.4353 10.236 11.6692 10.6423C11.9057 11.0486 12.2223 11.3737 12.6188 11.6175C13.0179 11.8587 13.4613 11.9795 13.9491 11.9795ZM21.6091 13.1357H20.2234V5.44133H21.6091V13.1357ZM20.9144 4.05612C20.6584 4.05612 20.4403 3.96636 20.2604 3.78647C20.0804 3.60658 19.9906 3.38864 19.9906 3.13265C19.9906 2.86669 20.0804 2.64617 20.2604 2.47145C20.4403 2.29673 20.6584 2.20918 20.9144 2.20918C21.1805 2.20918 21.4011 2.29673 21.5759 2.47145C21.7506 2.64617 21.8382 2.86669 21.8382 3.13265C21.8382 3.38864 21.7506 3.60658 21.5759 3.78647C21.4011 3.96636 21.1805 4.05612 20.9144 4.05612ZM25.4558 13.1357H24.0701V5.44133H25.3523V6.68248C25.6357 6.22924 26.0015 5.88349 26.4498 5.64449C26.9006 5.4055 27.3857 5.28619 27.9057 5.28619C28.4551 5.28619 28.9625 5.42027 29.4281 5.68882C29.8936 5.95958 30.2717 6.34892 30.5625 6.85609C30.8533 7.36584 30.9985 7.98383 30.9985 8.71042V13.1357H29.6128V8.9025C29.6128 8.2967 29.4318 7.75998 29.0696 7.29197C28.7049 6.82654 28.1939 6.59382 27.5361 6.59382C26.9966 6.59382 26.5152 6.78849 26.0913 7.17746C25.6675 7.56642 25.4558 8.12937 25.4558 8.86556V13.1357ZM37.2987 13.2391C36.7692 13.2391 36.2726 13.1383 35.8096 12.9362C35.3488 12.7367 34.9423 12.466 34.5902 12.1236V13.1357H33.308V0.823975H34.6936V6.35003C35.0362 6.03494 35.4301 5.78745 35.8761 5.60755C36.3195 5.42766 36.7936 5.3379 37.2987 5.3379C38.0082 5.3379 38.6523 5.51521 39.2313 5.86982C39.8077 6.22443 40.2696 6.70094 40.617 7.29935C40.9617 7.89776 41.1343 8.56008 41.1343 9.28666C41.1343 10.0132 40.9617 10.6767 40.617 11.2777C40.2696 11.8761 39.8077 12.3526 39.2313 12.7072C38.6523 13.0618 38.0082 13.2391 37.2987 13.2391ZM37.1177 11.9795C37.6054 11.9795 38.0488 11.8587 38.4479 11.6175C38.8444 11.3737 39.1611 11.0486 39.3976 10.6423C39.6315 10.236 39.7486 9.78423 39.7486 9.28666C39.7486 8.79168 39.6315 8.34103 39.3976 7.9347C39.1611 7.52837 38.8444 7.20331 38.4479 6.95952C38.0488 6.71572 37.6054 6.59382 37.1177 6.59382C36.6325 6.59382 36.1902 6.71572 35.7911 6.95952C35.3946 7.20331 35.0779 7.52837 34.8415 7.9347C34.6076 8.34103 34.4904 8.79168 34.4904 9.28666C34.4904 9.78423 34.6076 10.236 34.8415 10.6423C35.0779 11.0486 35.3946 11.3737 35.7911 11.6175C36.1902 11.8587 36.6325 11.9795 37.1177 11.9795ZM46.5773 13.2908C45.8308 13.2908 45.1498 13.1109 44.5338 12.7515C43.9179 12.3921 43.429 11.9082 43.0669 11.2998C42.7021 10.694 42.52 10.0229 42.52 9.28666C42.52 8.54308 42.7021 7.86932 43.0669 7.26611C43.429 6.66511 43.9179 6.18491 44.5338 5.82549C45.1498 5.46608 45.8308 5.28619 46.5773 5.28619C47.3285 5.28619 48.0099 5.46608 48.6207 5.82549C49.2341 6.18491 49.7218 6.66511 50.084 7.26611C50.4487 7.86932 50.6308 8.54308 50.6308 9.28666C50.6308 10.0229 50.4487 10.694 50.084 11.2998C49.7218 11.9082 49.2341 12.3921 48.6207 12.7515C48.0099 13.1109 47.3285 13.2908 46.5773 13.2908ZM46.5773 11.9795C47.0724 11.9795 47.5206 11.8587 47.9223 11.6175C48.324 11.3737 48.6454 11.0486 48.8867 10.6423C49.1258 10.236 49.2452 9.78423 49.2452 9.28666C49.2452 8.79168 49.1258 8.34103 48.8867 7.9347C48.6454 7.52837 48.324 7.20331 47.9223 6.95952C47.5206 6.71572 47.0724 6.59382 46.5773 6.59382C46.0795 6.59382 45.6302 6.71572 45.2285 6.95952C44.8269 7.20331 44.5069 7.52837 44.2678 7.9347C44.0265 8.34103 43.9057 8.79168 43.9057 9.28666C43.9057 9.78423 44.0265 10.236 44.2678 10.6423C44.5069 11.0486 44.8269 11.3737 45.2285 11.6175C45.6302 11.8587 46.0795 11.9795 46.5773 11.9795ZM56.9163 10.0845L55.3643 13.5199L51.477 5.44133H53.0549L54.6068 8.77321C54.752 9.09089 54.8913 9.39859 55.0244 9.69668C55.1574 9.997 55.2878 10.3738 55.4161 10.827C55.5517 10.3812 55.6906 10.0044 55.8336 9.69668C55.974 9.38898 56.1082 9.08091 56.2364 8.77321L57.7883 5.07933L59.3292 8.77321C59.4574 9.09089 59.5905 9.39859 59.7283 9.69668C59.8639 9.997 59.9954 10.3738 60.1237 10.827C60.2519 10.3738 60.3849 9.99589 60.5228 9.69299C60.6584 9.38751 60.7988 9.08091 60.944 8.77321L62.5218 5.44133H63.9999L60.1126 13.5199L58.5458 10.0845C58.4102 9.77684 58.2761 9.47025 58.1431 9.16476C58.01 8.86187 57.8744 8.49617 57.7366 8.06768C57.6084 8.49617 57.4768 8.86187 57.3412 9.16476C57.2034 9.47025 57.0615 9.77684 56.9163 10.0845Z" fill="#003912"/>
<path d="M6.0194 27.176C5.18171 27.176 4.39834 27.0198 3.66928 26.7069C2.94245 26.394 2.30319 25.9618 1.7515 25.4103C1.19982 24.8588 0.7697 24.222 0.461894 23.5006C0.154088 22.7766 0 21.9998 0 21.1698C0 20.3423 0.156305 19.5666 0.469284 18.8426C0.782263 18.1212 1.2146 17.4844 1.76628 16.9329C2.31797 16.3814 2.95723 15.9492 3.68406 15.6363C4.4109 15.3235 5.19279 15.1672 6.03048 15.1672C6.85339 15.1672 7.62309 15.3198 8.33995 15.6252C9.0594 15.9281 9.69238 16.3444 10.2393 16.8738L9.81801 18.6432C9.42374 18.0126 8.89534 17.5065 8.23279 17.125C7.57025 16.7434 6.83603 16.5524 6.03048 16.5524C5.1854 16.5524 4.42199 16.7604 3.73949 17.1767C3.05958 17.5904 2.51898 18.1456 2.11732 18.8426C1.71566 19.5397 1.51501 20.3154 1.51501 21.1698C1.51501 22.0094 1.71455 22.7792 2.11363 23.4784C2.51012 24.1803 3.0485 24.7406 3.72841 25.1592C4.40831 25.5777 5.1721 25.7871 6.0194 25.7871C6.49718 25.7871 6.95316 25.7306 7.3866 25.6172C7.81783 25.5016 8.21321 25.3365 8.57275 25.1222V22.0932H5.39122V20.7856H9.9843V25.8647C9.46217 26.3006 8.85617 26.6282 8.16628 26.8473C7.47898 27.0663 6.76323 27.176 6.0194 27.176ZM15.8226 27.0467C15.1206 27.0467 14.4787 26.8694 13.8975 26.5148C13.3162 26.1602 12.8517 25.6837 12.5044 25.0853C12.157 24.4843 11.9834 23.8209 11.9834 23.0943C11.9834 22.3677 12.157 21.7054 12.5044 21.107C12.8517 20.5086 13.3162 20.0321 13.8975 19.6774C14.4787 19.3228 15.1206 19.1455 15.8226 19.1455C16.3521 19.1455 16.8499 19.2441 17.3155 19.441C17.7811 19.6379 18.1849 19.9113 18.5275 20.2611V19.2489H19.8097V26.9433H18.5275V25.9312C18.1849 26.2736 17.7811 26.5444 17.3155 26.7438C16.8499 26.9459 16.3521 27.0467 15.8226 27.0467ZM16 25.7871C16.4878 25.7871 16.9312 25.6663 17.3303 25.4251C17.7267 25.1813 18.0434 24.8563 18.2799 24.4499C18.5138 24.0436 18.6309 23.5918 18.6309 23.0943C18.6309 22.5993 18.5138 22.1486 18.2799 21.7423C18.0434 21.336 17.7267 21.0109 17.3303 20.7671C16.9312 20.5233 16.4878 20.4014 16 20.4014C15.5122 20.4014 15.0699 20.5233 14.6734 20.7671C14.2744 21.0109 13.9577 21.336 13.7238 21.7423C13.4873 22.1486 13.3691 22.5993 13.3691 23.0943C13.3691 23.5918 13.4873 24.0436 13.7238 24.4499C13.9577 24.8563 14.2744 25.1813 14.6734 25.4251C15.0699 25.6663 15.5122 25.7871 16 25.7871ZM23.66 26.9433H22.2744V19.2489H23.5566V20.66C23.83 20.2068 24.1933 19.8448 24.6467 19.574C25.1023 19.3055 25.6418 19.1714 26.2651 19.1714L26.6125 20.5566C26.4499 20.5049 26.2614 20.479 26.0471 20.479C25.3277 20.479 24.7501 20.708 24.3141 21.1661C23.8781 21.6241 23.66 22.2753 23.66 23.1201V26.9433ZM31.346 27.0467C30.6439 27.0467 30.002 26.8694 29.4208 26.5148C28.8395 26.1602 28.3751 25.6837 28.0277 25.0853C27.683 24.4843 27.5104 23.8209 27.5104 23.0943C27.5104 22.3677 27.683 21.7054 28.0277 21.107C28.3751 20.5086 28.8395 20.0321 29.4208 19.6774C30.002 19.3228 30.6439 19.1455 31.346 19.1455C31.8511 19.1455 32.3252 19.2353 32.7686 19.4152C33.2146 19.5951 33.6085 19.8426 33.951 20.1576V14.6316H35.3367V26.9433H34.0545V25.9312C33.712 26.2736 33.307 26.5444 32.8388 26.7438C32.3732 26.9459 31.8755 27.0467 31.346 27.0467ZM31.527 25.7871C32.0148 25.7871 32.4571 25.6663 32.8536 25.4251C33.2501 25.1813 33.5667 24.8563 33.8032 24.4499C34.0371 24.0436 34.1543 23.5918 34.1543 23.0943C34.1543 22.5993 34.0371 22.1486 33.8032 21.7423C33.5667 21.336 33.2501 21.0109 32.8536 20.7671C32.4571 20.5233 32.0148 20.4014 31.527 20.4014C31.0393 20.4014 30.5958 20.5233 30.1968 20.7671C29.8003 21.0109 29.4836 21.336 29.2471 21.7423C29.0132 22.1486 28.8961 22.5993 28.8961 23.0943C28.8961 23.5918 29.0132 24.0436 29.2471 24.4499C29.4836 24.8563 29.8003 25.1813 30.1968 25.4251C30.5958 25.6663 31.0393 25.7871 31.527 25.7871ZM41.4707 27.0984C40.6651 27.0984 39.9435 26.9186 39.3053 26.5591C38.6697 26.1997 38.1698 25.7095 37.8051 25.089C37.443 24.471 37.2619 23.7802 37.2619 23.0167C37.2619 22.2901 37.4367 21.6304 37.7866 21.0368C38.1365 20.4432 38.6095 19.9704 39.2055 19.6183C39.7994 19.2685 40.4556 19.0938 41.1751 19.0938C41.8845 19.0938 42.5338 19.2626 43.1224 19.5999C43.7136 19.9371 44.184 20.3929 44.5339 20.9666C44.8861 21.5403 45.0624 22.1904 45.0624 22.917V23.4784H40.0333C39.809 23.4784 39.5824 23.4711 39.3533 23.4563C39.1217 23.4389 38.8951 23.4131 38.6734 23.3787C38.7669 24.061 39.0762 24.6335 39.6009 25.0964C40.1282 25.557 40.7549 25.7871 41.4818 25.7871C41.9695 25.7871 42.4229 25.6763 42.8416 25.4547C43.2602 25.233 43.598 24.9386 43.854 24.5718L44.242 26.1491C43.8725 26.4472 43.4513 26.6799 42.9783 26.8473C42.5027 27.0146 42.0002 27.0984 41.4707 27.0984ZM38.6328 22.4405C39.0958 22.364 39.5629 22.326 40.0333 22.326H42.5866C42.7739 22.326 42.9598 22.3322 43.1446 22.3444C43.3267 22.3566 43.513 22.3714 43.7025 22.3887C43.5817 21.7903 43.2824 21.2965 42.8046 20.9075C42.3242 20.5185 41.7811 20.3239 41.1751 20.3239C40.5495 20.3239 40.0011 20.5318 39.5307 20.9481C39.0603 21.3618 38.761 21.8594 38.6328 22.4405ZM48.2956 26.9433H46.9099V19.2489H48.1921V20.4901C48.4756 20.0369 48.8414 19.6911 49.2896 19.4521C49.7378 19.2131 50.2234 19.0938 50.7455 19.0938C51.2924 19.0938 51.7986 19.2279 52.2642 19.4964C52.7324 19.7672 53.1115 20.1565 53.4023 20.6637C53.6931 21.1735 53.8383 21.7914 53.8383 22.518V26.9433H52.4527V22.7101C52.4527 22.1043 52.2705 21.5676 51.9058 21.0996C51.5436 20.6342 51.0326 20.4014 50.3723 20.4014C49.8354 20.4014 49.355 20.5961 48.9312 20.9851C48.5073 21.374 48.2956 21.937 48.2956 22.6732V26.9433ZM58.1358 27.0984C57.7415 27.0984 57.3203 27.0235 56.8721 26.8731C56.4238 26.7228 56.037 26.4731 55.7118 26.1233L56.0961 24.6088C56.3351 25.0103 56.643 25.3291 57.0199 25.5655C57.3968 25.7993 57.7984 25.9164 58.2245 25.9164C58.6357 25.9164 58.9439 25.8167 59.1483 25.6172C59.3552 25.4151 59.4587 25.1691 59.4587 24.8784C59.4587 24.546 59.3489 24.3022 59.1298 24.147C58.9129 23.9945 58.7185 23.8874 58.546 23.8257L57.5076 23.4304C57.3181 23.3517 57.0912 23.2383 56.8277 23.0906C56.5617 22.9402 56.33 22.7238 56.133 22.4405C55.9361 22.1597 55.8374 21.7929 55.8374 21.3397C55.8374 20.9286 55.9361 20.5518 56.133 20.2094C56.33 19.8669 56.6086 19.5962 56.9681 19.3967C57.3277 19.1946 57.7515 19.0938 58.2393 19.0938C58.6236 19.0938 59.0252 19.1629 59.4439 19.3007C59.8625 19.4362 60.2173 19.6664 60.5081 19.9914L60.1238 21.5059C59.9194 21.1291 59.6408 20.8299 59.2887 20.6083C58.9388 20.3841 58.5755 20.2722 58.1986 20.2722C57.8487 20.2722 57.573 20.3708 57.3709 20.5677C57.1714 20.7645 57.0716 20.9914 57.0716 21.2473C57.0716 21.4542 57.1392 21.6389 57.2748 21.8014C57.4127 21.964 57.6185 22.0958 57.8919 22.1967L58.9303 22.5956C59.1198 22.6647 59.3526 22.7755 59.6286 22.9281C59.9069 23.0832 60.1533 23.3059 60.3677 23.5966C60.582 23.8874 60.6891 24.28 60.6891 24.775C60.6891 25.4669 60.4478 26.0272 59.9649 26.4557C59.4819 26.8842 58.8722 27.0984 58.1358 27.0984Z" fill="#003912"/>
</g>
</g>
</g>
</g>
<defs>
<clipPath id="clip0_366_1437">
<rect width="64" height="28" fill="white"/>
</clipPath>
<clipPath id="clip1_366_1437">
<rect width="64" height="28" fill="white"/>
</clipPath>
<clipPath id="clip2_366_1437">
<rect width="64" height="28" fill="white"/>
</clipPath>
<clipPath id="clip3_366_1437">
<rect width="64" height="28" fill="white"/>
</clipPath>
</defs>
</svg>
