<svg width="120" height="74" viewBox="0 0 120 74" fill="none" xmlns="http://www.w3.org/2000/svg">
<path d="M-61.461 27.7259C-61.0802 27.9485 -60.6968 28.6171 -61.0749 29.0638C-61.8286 30.6262 -58.7804 31.9598 -50.4068 33.7313C-42.0339 35.5024 -26.825 35.4784 -16.1865 33.6772L-12.7662 33.2258L-16.5587 35.4622C-21.4863 38.8158 -23.0021 39.9334 -26.7868 43.7314C-30.9488 48.1991 -32.4581 50.8779 -32.8197 54.8935C-33.1834 58.4627 -32.4159 60.0228 -30.5147 60.0201C-29.7545 60.0189 -28.9916 60.4637 -28.6095 60.9093C-27.0792 62.9142 -16.4401 61.3363 -7.71016 57.9766C-2.39589 55.9608 6.32688 51.0398 9.35655 48.3587C10.8724 47.2411 12.0074 46.1239 12.0074 46.1239C12.0074 46.1239 12.0146 47.6851 12.0239 49.6927C11.3025 58.1698 15.9047 66.8617 22.3903 71.5354C24.6788 73.0932 26.582 73.5364 28.0998 72.8648C28.858 72.4177 29.2381 72.4169 30.001 72.8617C31.5247 73.5287 33.4239 73.0796 35.698 71.5145C42.5209 66.8196 46.6638 58.1141 45.8647 49.6394C45.8555 47.6322 45.8483 46.0705 45.8483 46.0705C45.8483 46.0705 47.3733 46.9605 48.5202 48.2969C51.5743 50.9688 60.7233 56.0845 65.6739 57.8614C71.388 60.0827 77.8578 61.4109 82.4204 61.4035C85.4626 61.3989 86.2228 61.3978 86.599 60.5051C86.9771 60.0583 87.7354 59.6108 88.4963 59.6097C90.3975 59.6066 91.1504 58.0442 90.7538 54.4761C90.3553 50.4617 88.823 48.0105 84.6194 43.3329C80.7999 39.5473 79.6543 38.4336 74.3156 35.0962L70.5027 32.8718L73.9269 33.3124C84.5818 35.08 99.7908 35.0564 108.148 33.2587C116.885 31.4606 119.541 30.118 118.772 28.335C118.39 27.8894 118.768 27.4427 119.148 27.4419C120.288 27.4404 120.284 26.3251 119.135 24.7654C117.606 22.9835 110.746 19.4255 105.416 17.8723C97.8007 15.6537 87.5265 13.8857 78.7801 13.6763L76.4981 13.4568L80.2952 12.3357C93.966 8.52226 106.479 0.918938 109.494 -4.88548C110.626 -6.89462 109.858 -8.45469 108.337 -8.45237C107.957 -8.4516 107.575 -8.89719 107.573 -9.34353C107.566 -10.9048 104.521 -11.5691 95.7756 -11.5552C88.5509 -11.544 87.0312 -11.3187 82.0924 -10.4186C74.8743 -9.06876 68.0389 -7.05075 63.8649 -5.25957C61.9664 -4.58754 60.4485 -3.9159 60.4485 -3.9159C60.4485 -3.9159 61.2029 -5.25532 62.3366 -6.81849C64.9829 -10.1686 66.865 -14.4095 67.6048 -18.8718C68.7141 -25.788 64.4927 -34.2573 60.6996 -32.2439C59.94 -32.0198 59.94 -32.0198 59.5566 -32.6884C58.4057 -34.917 47.7758 -31.3315 41.7145 -26.4148C36.7889 -22.6152 29.6044 -13.9048 29.6143 -11.6742C29.6156 -11.4512 29.2375 -11.0045 28.8574 -11.0041C28.4766 -11.0033 28.0958 -11.2259 28.0939 -11.6719C28.0833 -13.9024 20.8191 -22.5901 15.8586 -26.3742C9.75247 -31.2716 -1.29048 -34.8231 -2.04015 -32.5914C-2.41763 -31.9217 -2.79774 -31.9209 -3.17916 -32.1435C-6.9908 -34.1449 -11.5145 -25.662 -9.96181 -18.7496C-9.18117 -14.29 -7.26086 -10.055 -4.58363 -6.71337C-3.43606 -5.15367 -2.67057 -4.03994 -2.66925 -3.81658C-2.66925 -3.81658 -4.19234 -4.26061 -6.0975 -5.14982C-10.2886 -6.92747 -17.1417 -8.92425 -24.3723 -10.2509C-29.319 -11.1355 -30.8408 -11.3561 -38.0655 -11.3449C-46.8106 -11.331 -49.8502 -10.88 -49.8423 -9.09582C-49.8403 -8.64948 -50.2184 -8.20313 -50.5986 -8.20235C-52.1197 -8.20004 -52.4925 -6.63802 -51.7231 -4.6316C-48.6545 1.16278 -36.0727 8.7267 -22.3671 12.4973L-18.5594 13.6064L-20.84 13.8328C-29.2031 14.2923 -39.8409 16.0935 -47.4365 18.1127C-51.2336 19.2342 -58.8233 22.5916 -59.9576 23.9318C-61.8483 26.1655 -62.6039 27.2819 -61.461 27.7259ZM-50.4563 23.0248C-45.5234 20.7865 -36.0279 18.5409 -28.8072 17.6374C-22.3473 16.735 -5.99737 16.7095 0.850517 17.5906C3.51325 17.8097 8.45994 18.6939 11.5041 19.1352L17.213 20.2416L15.3157 21.137C11.1424 23.1508 3.17204 26.286 -0.244987 27.4067C-5.56124 28.9765 -18.4777 31.4505 -24.178 32.1283C-30.6392 32.8077 -43.1887 32.3814 -47.7546 31.7195C-49.6578 31.2762 -53.0827 30.6127 -55.3673 29.9472L-59.5551 28.8385L-57.2817 27.0504C-55.7672 25.7099 -53.1124 24.144 -50.4563 23.0248ZM-46.0339 -7.76336C-38.4324 -8.44466 -32.3467 -8.00797 -25.1161 -6.68091C-21.3111 -6.01777 -15.9816 -4.68802 -13.6964 -3.79919C-8.36562 -2.24645 1.16148 2.42259 6.49881 5.53696C9.55022 7.53991 17.9475 14.6641 17.9508 15.3334C17.9528 15.7793 8.44479 15.3485 1.97899 14.9125C-4.1067 14.4759 -14.3822 12.4845 -21.9969 10.2659C-28.0885 8.49095 -37.2335 4.26749 -41.4285 1.59754C-43.717 0.039772 -49.4477 -5.97371 -49.4516 -6.86602C-49.0748 -7.53573 -47.9352 -7.76027 -46.0339 -7.76336ZM-27.8836 53.3241C-26.7597 49.7537 -22.6016 44.3937 -17.676 40.5942C-13.5073 37.4652 -2.88667 31.8721 3.18716 29.6319C7.36243 28.0641 19.1353 24.9227 20.2756 24.9211C21.0365 24.9196 18.4054 31.6155 16.5207 35.187C13.1227 40.5459 6.30643 46.5791 -0.518402 50.8277C-9.61927 56.1954 -16.8328 58.6602 -26.3342 59.5672L-28.9949 59.7944L-29.0022 58.2332C-28.6267 57.1175 -28.2558 55.1091 -27.8836 53.3241ZM-5.0428 -23.8878C-4.29708 -27.2344 -2.41168 -30.5834 -1.27069 -30.5853C-0.510475 -30.5865 4.06072 -28.8092 7.87103 -27.0308C11.3012 -25.2516 14.7354 -22.5805 18.5562 -18.5715C25.053 -11.4442 28.1479 0.149899 25.526 8.85305L24.7783 11.7537L17.1537 7.30458C9.52849 2.85581 6.47444 0.183926 0.741192 -6.27552C-2.31549 -9.61674 -3.46836 -12.2914 -4.63043 -16.9735C-5.79052 -21.2098 -5.78985 -20.9868 -5.0428 -23.8878ZM18.8355 42.5442C19.5859 40.3125 20.7124 37.1881 21.8468 35.8479C23.7335 32.7223 29.0306 26.9148 29.4107 26.914C29.7908 26.9132 31.3192 28.4725 32.8482 30.2544C45.0789 44.0645 44.3983 61.6864 31.8897 70.1821L29.6156 71.7472L27.3271 70.1894C24.6571 68.4091 20.8356 64.1771 19.6834 61.7255C16.6142 55.7077 16.5891 50.1317 18.8355 42.5442ZM24.0372 15.993C24.0352 15.5467 24.4146 15.3233 25.555 15.3214C26.3159 15.3202 27.8356 15.0946 28.2138 14.6482C29.3528 14.2003 29.3527 14.2003 30.495 14.6443C30.8778 15.0899 32.3996 15.3106 33.1598 15.3094C34.3008 15.3075 34.6815 15.5301 34.6842 15.976C34.6861 16.4224 35.4497 17.0901 36.2119 17.535C36.9747 17.9801 37.3568 18.4257 36.9773 18.6491C36.5985 18.8728 36.2211 19.5425 36.223 19.9885C36.225 20.4348 35.4687 21.3283 34.3311 21.9992C32.8146 22.8938 31.6749 23.1187 29.3936 23.1222C27.1116 23.1257 25.97 22.9046 24.445 22.0146C23.3013 21.3473 22.5371 20.4565 22.5352 20.0101C22.5325 19.5642 22.1498 18.8956 21.769 18.896C21.3883 18.6738 21.3863 18.2275 22.5246 17.7796C23.2822 17.1095 24.0391 16.439 24.0372 15.993ZM33.4404 -6.55029C35.6888 -13.6914 38.3324 -17.7105 44.7706 -23.2969C47.8002 -25.9781 57.2845 -30.6773 59.5658 -30.6808C60.3267 -30.6819 62.243 -27.3392 63.3985 -23.9953C63.7892 -21.7655 63.7951 -20.4272 63.0494 -17.3032C61.9321 -12.1712 60.4222 -9.71529 57.7772 -6.14221C52.4834 0.334625 49.4524 2.79282 41.4892 7.48969L33.9048 11.9624L33.1321 9.28705C31.5912 4.82862 31.9417 -1.64049 33.4404 -6.55029ZM44.6164 26.2211C48.0427 27.1076 52.6119 28.4389 55.2772 29.327C61.3715 31.5479 72.4236 37.1069 76.2399 40.2236C83.1095 45.7888 87.7031 52.4732 87.7262 57.6036L87.7334 59.1649L84.6905 58.9465C75.5613 58.0685 67.9453 55.627 58.7951 50.2882C52.3141 46.5064 45.0611 40.2727 41.9958 35.1472C40.0808 32.0275 37.005 24.6715 37.7646 24.4473C38.5268 24.8921 41.5716 25.5564 44.6164 26.2211ZM44.9273 11.0531C49.8503 6.58425 54.0203 3.90113 61.9881 0.0965691C69.5764 -3.48424 74.8914 -5.27696 84.0087 -7.07587C91.2268 -8.42534 91.6069 -8.4261 99.2118 -8.43808C103.396 -8.22167 107.198 -8.22748 107.579 -8.00488C108.342 -7.56009 102.666 -1.30584 100.014 0.706005C96.2249 3.61169 87.1188 7.86376 80.6622 9.43543C73.0679 11.678 62.8109 13.7014 56.7291 14.157C50.2673 14.6134 40.7633 15.0745 40.7613 14.6281C40.7626 14.8515 42.6553 13.0638 44.9273 11.0531ZM47.6257 19.0784C56.3629 17.2803 62.0645 16.8255 72.7108 16.8085C84.1181 16.7907 90.2044 17.4503 98.9588 19.444C106.191 21.217 110 22.5491 114.956 25.4413L118.77 27.8886L115.732 28.7856C114.213 29.2342 110.795 30.132 108.137 30.8051C102.438 31.9293 91.0331 32.3934 83.0456 31.7368C76.5785 31.078 64.0197 28.6441 57.9281 26.8692C54.1204 25.7601 41.9299 20.6489 41.9273 20.2026C42.3081 20.2022 44.5861 19.5294 47.6257 19.0784Z" fill="#063C17" fill-opacity="0.33"/>
</svg>
