<svg width="21" height="21" viewBox="0 0 21 21" fill="none" xmlns="http://www.w3.org/2000/svg">
<rect x="0.765625" y="0.688721" width="20.0103" height="20.2921" rx="10.0051" fill="white"/>
<g clip-path="url(#clip0_179_2099)">
<path d="M3.88385 10.8899C3.88352 12.0975 4.1953 13.2767 4.78814 14.3161L3.82715 17.8672L7.4179 16.9143C8.41105 17.4615 9.52381 17.7483 10.6546 17.7483H10.6576C14.3905 17.7483 17.4292 14.674 17.4308 10.8953C17.4315 9.06419 16.7276 7.34236 15.4487 6.04696C14.1699 4.75167 12.4693 4.03795 10.6573 4.03711C6.92392 4.03711 3.88544 7.11127 3.8839 10.8899" fill="#1FAF38"/>
<path d="M3.6424 10.8874C3.64201 12.1385 3.96496 13.3598 4.57895 14.4364L3.5835 18.1149L7.303 17.1278C8.32784 17.6934 9.48172 17.9915 10.6558 17.992H10.6589C14.5257 17.992 17.6736 14.8071 17.6752 10.893C17.6759 8.99618 16.9467 7.21246 15.622 5.87065C14.2972 4.529 12.5358 3.7896 10.6589 3.78882C6.79135 3.78882 3.64394 6.97329 3.6424 10.8874ZM5.8575 14.251L5.71862 14.0279C5.1348 13.0884 4.82665 12.0027 4.82709 10.8878C4.8283 7.63453 7.4443 4.98773 10.6611 4.98773C12.2189 4.9884 13.6829 5.60301 14.784 6.71813C15.8851 7.83337 16.491 9.31585 16.4906 10.8926C16.4892 14.1459 13.8731 16.793 10.6589 16.793H10.6566C9.60997 16.7925 8.58353 16.508 7.68838 15.9704L7.47535 15.8426L5.26812 16.4283L5.8575 14.251Z" fill="#1FAF38"/>
<path d="M8.9058 7.92033C8.77446 7.62489 8.63624 7.61893 8.51134 7.61375C8.40906 7.60929 8.29215 7.60962 8.17534 7.60962C8.05842 7.60962 7.86846 7.65414 7.70789 7.83158C7.54716 8.00919 7.09424 8.43839 7.09424 9.31133C7.09424 10.1843 7.72248 11.028 7.81005 11.1465C7.89774 11.2647 9.02288 13.1135 10.8048 13.8247C12.2858 14.4157 12.5872 14.2982 12.9086 14.2685C13.23 14.239 13.9458 13.8395 14.0919 13.4251C14.238 13.0109 14.238 12.6558 14.1942 12.5815C14.1504 12.5076 14.0335 12.4632 13.8582 12.3745C13.6828 12.2858 12.8209 11.8565 12.6602 11.7973C12.4995 11.7381 12.3826 11.7086 12.2657 11.8863C12.1488 12.0637 11.813 12.4632 11.7107 12.5815C11.6085 12.7002 11.5062 12.7149 11.3309 12.6262C11.1555 12.5371 10.5909 12.35 9.92101 11.7456C9.39983 11.2753 9.04798 10.6945 8.94571 10.5168C8.84343 10.3394 8.93475 10.2433 9.02266 10.1549C9.10143 10.0754 9.19804 9.94767 9.28578 9.8441C9.37319 9.74048 9.40237 9.66655 9.46082 9.54822C9.51934 9.42978 9.49005 9.32615 9.44629 9.2374C9.40237 9.14866 9.06169 8.27114 8.9058 7.92033Z" fill="white"/>
</g>
<defs>
<clipPath id="clip0_179_2099">
<rect width="14.0917" height="14.3736" fill="white" transform="translate(3.5835 3.78882)"/>
</clipPath>
</defs>
</svg>
