<svg width="64" height="64" viewBox="0 0 64 64" fill="none" xmlns="http://www.w3.org/2000/svg">
<rect width="64" height="64" rx="32" fill="white"/>
<path d="M14.3729 31.1238C14.372 34.2912 15.198 37.384 16.7686 40.11L14.2227 49.4239L23.7357 46.9247C26.3668 48.3599 29.3149 49.1119 32.3107 49.1121H32.3185C42.2082 49.1121 50.2587 41.0488 50.2629 31.138C50.2648 26.3355 48.3999 21.8196 45.0116 18.422C41.6239 15.0248 37.1183 13.1528 32.3178 13.1506C22.427 13.1506 14.3769 21.2135 14.3729 31.1238Z" fill="#1FAF38"/>
<path d="M27.6744 23.3347C27.3264 22.5598 26.9602 22.5442 26.6293 22.5306C26.3584 22.5189 26.0486 22.5198 25.7392 22.5198C25.4294 22.5198 24.9261 22.6365 24.5007 23.1019C24.0749 23.5678 22.875 24.6935 22.875 26.983C22.875 29.2727 24.5394 31.4853 24.7714 31.7961C25.0037 32.1063 27.9846 36.9552 32.7055 38.8205C36.629 40.3707 37.4274 40.0624 38.2789 39.9846C39.1306 39.9072 41.027 38.8592 41.4139 37.7725C41.8011 36.686 41.8011 35.7546 41.685 35.56C41.5689 35.3661 41.2592 35.2497 40.7947 35.017C40.3301 34.7843 38.0466 33.6584 37.6209 33.5031C37.1951 33.3479 36.8855 33.2705 36.5758 33.7365C36.266 34.2017 35.3766 35.2497 35.1055 35.56C34.8346 35.8711 34.5635 35.9098 34.0992 35.6771C33.6344 35.4436 32.1386 34.9527 30.364 33.3675C28.9832 32.134 28.0511 30.6107 27.7801 30.1447C27.5091 29.6795 27.7511 29.4273 27.984 29.1954C28.1927 28.9869 28.4486 28.652 28.6811 28.3803C28.9126 28.1085 28.9899 27.9146 29.1448 27.6043C29.2998 27.2936 29.2223 27.0219 29.1063 26.7891C28.9899 26.5563 28.0874 24.2548 27.6744 23.3347Z" fill="white"/>
</svg>
